<?xml version="1.0" encoding="UTF-8" standalone="no"?>
<!-- Created with Inkscape (http://www.inkscape.org/) -->

<svg
   xmlns:dc="http://purl.org/dc/elements/1.1/"
   xmlns:cc="http://creativecommons.org/ns#"
   xmlns:rdf="http://www.w3.org/1999/02/22-rdf-syntax-ns#"
   xmlns:svg="http://www.w3.org/2000/svg"
   xmlns="http://www.w3.org/2000/svg"
   xmlns:xlink="http://www.w3.org/1999/xlink"
   xmlns:sodipodi="http://sodipodi.sourceforge.net/DTD/sodipodi-0.dtd"
   xmlns:inkscape="http://www.inkscape.org/namespaces/inkscape"
   width="204.03224mm"
   height="56.559181mm"
   viewBox="0 0 722.94889 200.40655"
   id="svg2"
   version="1.1"
   inkscape:version="0.91 r13725"
   sodipodi:docname="logo-full.svg">
  <defs
     id="defs4">
    <linearGradient
       inkscape:collect="always"
       id="linearGradient4243">
      <stop
         style="stop-color:#e83117;stop-opacity:1;"
         offset="0"
         id="stop4245" />
      <stop
         style="stop-color:#00585f;stop-opacity:1"
         offset="1"
         id="stop4247" />
    </linearGradient>
    <linearGradient
       inkscape:collect="always"
       xlink:href="#linearGradient4243"
       id="linearGradient4175"
       gradientUnits="userSpaceOnUse"
       gradientTransform="matrix(1.0424889,0,0,1.0424889,1.891069,-341.91463)"
       x1="-14.766992"
       y1="145.13994"
       x2="2.8272955"
       y2="57.437744" />
  </defs>
  <sodipodi:namedview
     id="base"
     pagecolor="#ffffff"
     bordercolor="#666666"
     borderopacity="1.0"
     inkscape:pageopacity="0.0"
     inkscape:pageshadow="2"
     inkscape:zoom="0.98994949"
     inkscape:cx="272.12971"
     inkscape:cy="194.07117"
     inkscape:document-units="px"
     inkscape:current-layer="layer1"
     showgrid="false"
     inkscape:window-width="1600"
     inkscape:window-height="839"
     inkscape:window-x="0"
     inkscape:window-y="0"
     inkscape:window-maximized="1"
     inkscape:snap-bbox="true"
     inkscape:bbox-nodes="true"
     fit-margin-top="0"
     fit-margin-left="0"
     fit-margin-right="0"
     fit-margin-bottom="0">
    <inkscape:grid
       type="xygrid"
       id="grid4196"
       originx="2.0980834e-07"
       originy="-839.59343" />
  </sodipodi:namedview>
  <metadata
     id="metadata7">
    <rdf:RDF>
      <cc:Work
         rdf:about="">
        <dc:format>image/svg+xml</dc:format>
        <dc:type
           rdf:resource="http://purl.org/dc/dcmitype/StillImage" />
        <dc:title />
      </cc:Work>
    </rdf:RDF>
  </metadata>
  <g
     inkscape:label="Layer 1"
     inkscape:groupmode="layer"
     id="layer1"
     transform="translate(2.0980835e-7,-12.362205)">
    <g
       transform="matrix(0.95100035,0,0,0.95100035,690.32653,292.84842)"
       id="g4167">
      <path
         style="fill:#e83117;fill-opacity:1"
         id="path4169"
         d="m -11.463203,-208.00504 c -0.138068,4.57379 0.404475,14.71509 1.032595,26.45487 2.4969283,46.67329 3.9223546,86.00167 -3.965117,94.54641 -1.563483,1.69378 -3.253378,2.08466 -4.396832,2.11577 -1.234839,0.0252 -3.03947,-0.29558 -4.752696,-2.05354 -8.496129,-8.69837 -8.28221,-49.59024 -5.34775,-108.31639 0.348088,-6.94821 0.622283,-12.43598 0.622283,-14.77148 0,-4.67103 -2.347174,-6.43482 -5.901978,-9.10481 -4.801318,-3.60536 -10.779137,-8.09553 -10.308537,-20.93404 0.750634,-20.52761 5.378878,-38.76443 5.575283,-39.53062 0.357814,-1.39625 1.684058,-2.31412 3.11725,-2.178 1.433204,0.1439 2.549438,1.31263 2.62333,2.75167 0.76035,14.69952 3.426452,28.82344 5.874748,31.59649 2.211056,-3.32533 4.007901,-18.57908 4.00985,-34.7507 0,-1.58099 1.260119,-2.87418 2.841116,-2.91501 1.59849,-0.0428 2.907241,1.18623 2.988909,2.76333 0.855633,16.3758 3.445895,31.72484 5.847529,35.24853 2.0496477,-3.45174 3.7123241,-17.91985 3.6617634,-32.47742 -0.00521,-1.61211 1.2970751,-3.12503 2.9072304,-3.12503 l 0.00938,0 c 1.6062773,0 2.9111294,1.49737 2.9169569,3.10558 0.025228,7.33518 -0.3247457,31.78319 -5.9117043,37.1854 -1.3534637,1.30874 -2.7827784,1.59265 -3.7220394,1.5557 -3.319493,-0.12251 -5.971981,-4.08569 -7.939961,-11.8798 -0.933423,4.62825 -2.25384,8.41446 -4.11486,10.08685 -1.421527,1.27762 -2.885838,1.42541 -3.862046,1.32429 -4.71575,-0.5056 -7.554927,-7.97107 -9.252599,-17.46285 -0.805083,5.69779 -1.49348,12.21233 -1.738507,18.91356 -0.357803,9.7932 3.508132,12.69654 7.982744,16.05882 3.858158,2.89752 8.231659,6.18396 8.231659,13.77 0,2.48136 -0.264469,7.7591 -0.62812,15.06318 -1.302903,26.06204 -4.762413,95.29315 3.69482,103.95068 0.175013,0.1789 0.344199,0.29753 0.421979,0.29753 l 0.0021,0 c 0.147793,-0.0622 4.282096,-1.98353 4.622406,-32.12544 0.20807,-18.40212 -0.978157,-40.57685 -1.932973,-58.39557 -0.661177,-12.36207 -1.184288,-22.1261 -1.040383,-26.94298 z"
         inkscape:connector-curvature="0"
         sodipodi:nodetypes="csscccscccccccccccsscscccccccsccsccccc" />
      <path
         style="fill:#00585f;fill-opacity:1"
         id="path4171"
         d="m 11.427142,-84.63321 c -1.477915,0 -2.835278,-0.55033 -3.943725,-1.59655 -3.727867,-3.52953 -4.097356,-12.25705 -4.262643,-26.21179 -0.01751,-1.50321 -0.0369,-3.0103 -0.06224,-4.496 -0.248925,-13.96641 -1.497378,-89.42423 -1.497378,-89.42423 l 5.833913,-0.0973 c 0,0 1.248464,75.45199 1.49543,89.41839 0.02731,1.49738 0.04472,3.01225 0.06224,4.52713 0.08548,7.20684 0.245026,20.62095 2.479424,22.07943 2.747771,-0.15947 4.074015,-10.57884 3.844552,-31.01117 -0.06026,-5.32053 -0.289759,-11.2225 -0.532837,-17.46868 -0.826464,-21.16739 -1.606277,-41.15828 3.237825,-48.73655 0.904255,-1.41569 1.864908,-2.71666 2.796393,-3.97485 4.976331,-6.73428 10.123787,-13.69609 6.253964,-41.19329 -3.231997,-22.96226 -11.840912,-52.21936 -16.348592,-56.02113 -1.258169,1.82407 -4.472663,10.37854 -4.472663,50.06668 l -5.836539,0 c 0,-51.17707 5.059949,-55.81892 9.80293,-56.14951 3.467286,-0.25086 7.868007,2.34523 14.213366,23.35512 3.502293,11.59977 6.808182,26.48987 8.418337,37.93601 4.202377,29.85605 -1.929073,38.15383 -7.339059,45.47345 -0.912042,1.2329 -1.773513,2.39968 -2.570819,3.64814 -3.860107,6.04005 -3.008362,27.84529 -2.323843,45.36844 0.245026,6.28701 0.478377,12.22788 0.538664,17.63204 0.270297,24.16798 -1.129839,36.50476 -9.524845,36.87035 -0.08945,0.003 -0.176963,0.005 -0.26252,0.005 z"
         inkscape:connector-curvature="0"
         sodipodi:nodetypes="ccccccccccccccccccccccccccc" />
      <path
         inkscape:connector-curvature="0"
         d="m 10.783468,-288.8398 c -1.258169,1.82407 -4.472663,10.37854 -4.472663,50.06668 0,19.53001 -6.065336,22.48003 -12.822955,23.96574 -3.37978,0.74285 -4.77993,1.0501 -4.95105,6.80234 -0.13807,4.57379 0.40447,14.71509 1.03259,26.45487 -0.95629,-1.69301 -5.7323,2.25531 -5.82486,0.31309 -0.66118,-12.36207 -1.18429,-22.1261 -1.04038,-26.94298 0.28586,-9.51123 4.67101,-11.25751 9.53068,-12.32512 4.23736,-0.93148 8.239436,-1.81046 8.239436,-18.26794 0,-51.17707 5.059949,-55.81892 9.80293,-56.14951 z"
         id="path4173"
         style="fill:url(#linearGradient4175);fill-opacity:1"
         sodipodi:nodetypes="csccccccscc" />
    </g>
    <path
       style="font-style:normal;font-variant:normal;font-weight:normal;font-stretch:normal;font-size:267.56549072px;line-height:125%;font-family:'Alex Brush';-inkscape-font-specification:'Alex Brush';letter-spacing:0px;word-spacing:0px;fill:#e83117;fill-opacity:1;stroke:none;stroke-width:1px;stroke-linecap:butt;stroke-linejoin:miter;stroke-opacity:1"
       d="m 146.08984,12.36221 c -11.41612,0 -25.952,3.38963 -43.61132,10.16796 C 68.230133,35.90845 40.224884,56.33161 18.462891,83.80165 6.1548779,99.32045 -2.0980835e-7,112.60947 -2.0980835e-7,123.66884 -2.0980835e-7,134.72821 7.1341372,141.7751 21.404297,144.80751 l 0.267578,0 c 0.891885,0.17839 2.586706,0.26758 5.083984,0.26758 9.632358,0 20.693298,-3.03284 33.179688,-9.09766 12.664766,-6.24319 19.977306,-12.75487 21.939453,-19.5332 0.178377,-1.24864 -0.08923,-1.87109 -0.802734,-1.87109 -0.713508,0 -3.389542,1.96047 -8.027344,5.88476 -13.021521,11.41613 -25.686128,17.125 -37.994141,17.125 -13.199897,0 -19.798828,-4.90606 -19.798828,-14.71679 0,-9.98912 5.528517,-22.47531 16.587891,-37.45899 C 42.899217,70.24509 55.742227,57.66967 70.369141,47.68057 97.482444,29.12935 118.62116,19.85439 133.7832,19.85439 c 12.48639,0 18.72852,3.38965 18.72852,10.16797 0,12.30801 -15.60825,41.38172 -46.82422,87.22461 l -51.638672,74.38477 c -3.210786,6.24319 -4.816406,11.3257 -4.816406,15.25 0,3.92429 1.516419,5.88672 4.548828,5.88672 3.924294,0 8.382397,-2.85444 13.376953,-8.5625 l 31.039063,-37.99414 c 21.048484,-25.32954 35.764714,-42.0082 44.148434,-50.03517 8.5621,-8.20534 16.94505,-15.69628 25.15039,-22.4746 l 26.22071,-20.33398 -19.26368,42.0078 c -11.41612,25.15117 -17.125,44.50391 -17.125,58.06055 10e-6,17.1242 8.74172,25.68555 26.22266,25.68555 17.65932,0 37.27967,-9.09656 58.86328,-27.29101 21.40524,-17.65932 38.88671,-37.90408 52.44336,-60.73634 13.73503,-22.83224 20.60156,-41.38414 20.60156,-55.65429 0,-3.21078 -1.07041,-8.47366 -3.21093,-15.7871 l 8.5625,0 c 2.49727,-0.17838 4.6381,-0.98119 6.42187,-2.40821 3.38916,-1.78377 5.08399,-3.65505 5.08399,-5.61719 0,-1.07027 -0.89202,-1.60547 -2.67579,-1.60547 -1.60539,0 -3.83542,1.06847 -6.68945,3.20898 -2.85403,2.14052 -5.44086,3.21095 -7.75976,3.21095 -2.14053,0 -3.74615,-0.80282 -4.81641,-2.40821 0.17838,-0.7135 -0.62248,-1.96037 -2.40625,-3.74415 -1.78377,-1.78377 -3.30019,-3.74618 -4.54883,-5.8867 -1.07026,-2.31892 -3.03268,-3.47852 -5.88672,-3.47852 -2.85403,0 -5.17326,0.7136 -6.95703,2.14062 -1.78377,1.42702 -2.67578,3.30023 -2.67578,5.61915 0,2.14052 1.33802,4.27939 4.01367,6.41991 l 0,-0.26757 c 4.10267,4.10267 8.11672,6.15429 12.04102,6.15429 0.35675,1.78377 0.53515,3.56779 0.53515,5.35156 0,11.23776 -5.44126,27.6488 -16.32226,49.23242 -10.70262,21.40524 -26.31087,42.4528 -46.82422,63.14453 -22.65388,23.18902 -42.00662,34.78516 -58.06055,34.78516 -11.95126,0 -17.92773,-5.97647 -17.92773,-17.92773 0,-10.88099 6.06568,-28.89768 18.19531,-54.04883 12.30801,-25.32954 26.66744,-48.16112 43.07813,-68.4961 -1.6054,-2.49727 -4.63824,-3.74608 -9.09766,-3.74608 -4.28105,0 -7.58149,0.7136 -9.90039,2.14061 -9.2756,6.06482 -17.92616,12.84411 -25.95313,20.33594 -15.34042,14.8053 -26.13375,24.97227 -32.37695,30.50196 -16.23231,14.27016 -33.44422,31.48402 -51.638671,51.64062 -18.016076,20.1566 -27.292994,30.23438 -27.828125,30.23438 0.178377,0 8.384881,-10.79138 24.617188,-32.37501 C 142.96971,87.37046 167.22852,45.54098 167.22852,26.27627 c 0,-9.2756 -7.04689,-13.91406 -21.13868,-13.91406 z"
       id="text4178"
       inkscape:connector-curvature="0" />
    <path
       style="font-style:normal;font-variant:normal;font-weight:normal;font-stretch:normal;font-size:167.38577271px;line-height:125%;font-family:'Alex Brush';-inkscape-font-specification:'Alex Brush';letter-spacing:0px;word-spacing:0px;fill:#00585f;fill-opacity:1;stroke:none;stroke-width:1px;stroke-linecap:butt;stroke-linejoin:miter;stroke-opacity:1"
       d="m 389.42383,85.975485 c -1.11591,0 -3.23484,2.00813 -6.35938,6.02539 -2.56658,3.34772 -4.85465,6.30451 -6.86328,8.871105 l -9.70898,0 c -0.66955,0.11159 -1.17109,0.16796 -1.50586,0.16796 -2.67817,0.78113 -4.01758,2.12054 -4.01758,4.01757 0,2.56658 1.61934,3.84961 4.85547,3.84961 1.1159,0 2.45336,-0.16718 4.01562,-0.50194 -2.12022,3.90567 -5.18782,9.87563 -9.20507,17.91015 -0.48526,0.95704 -0.9386,1.88673 -1.36524,2.79492 -0.47348,0.53159 -0.98584,1.13881 -1.57422,1.89063 -5.46793,6.91861 -12.89007,13.27932 -22.26367,19.08203 -4.01726,2.56658 -7.19761,3.85156 -9.54102,3.85156 -2.78976,0 -4.18359,-2.01008 -4.18359,-6.02734 0,-4.12885 4.18345,-11.60541 12.55274,-22.42969 1.45067,-1.89704 2.95726,-3.84879 4.51953,-5.85742 1.56226,-2.12022 2.79087,-3.73957 3.68359,-4.85547 0.89272,-1.11591 1.72863,-2.119 2.50977,-3.01172 0.78113,-1.00432 1.45181,-1.89661 2.00976,-2.67773 0,-0.89272 -0.7251,-1.78696 -2.17578,-2.67969 -1.33909,-0.89272 -2.56769,-1.33789 -3.68359,-1.33789 -4.01726,0.11159 -9.31655,5.52364 -15.90039,16.23633 -2.16513,3.48622 -3.93947,6.69997 -5.39258,9.6914 -11.53793,13.38452 -19.74222,20.10352 -24.58789,20.10352 -1.89704,0 -3.12564,-1.28498 -3.6836,-3.85156 -0.11159,-0.33478 -0.16797,-0.66914 -0.16797,-1.00391 0,-4.01726 3.4603,-11.10308 10.37891,-21.25781 6.91861,-10.26633 10.37695,-15.67837 10.37695,-16.23633 0,-0.55795 -0.55792,-1.33943 -1.67382,-2.34375 -1.11591,-1.00431 -2.28618,-1.50586 -3.51368,-1.50586 l -2.34375,0.50196 c -0.11159,0 -0.27877,-0.27799 -0.50195,-0.83594 -0.22318,-0.66954 -0.50312,-1.45103 -0.83789,-2.34375 -1.2275,-2.566585 -3.68275,-3.849615 -7.36523,-3.849615 -9.4852,0 -19.91855,5.690035 -31.30078,17.072265 -11.38224,11.27064 -17.07227,20.97889 -17.07227,29.125 0,3.68249 1.50659,6.63928 4.51953,8.87109 2.67817,1.89704 5.46779,2.84571 8.36914,2.84571 3.01295,0 7.81069,-2.90042 14.39453,-8.70313 l 10.37891,-10.04297 c -0.44636,1.89704 -0.66992,3.79437 -0.66992,5.69141 0,5.46794 2.45525,9.14984 7.36523,11.04688 0.89273,0.33477 1.84139,0.50195 2.8457,0.50195 5.41962,0 12.63645,-5.03976 21.63282,-15.06641 -0.68156,2.41242 -1.02735,4.59051 -1.02735,6.5293 0,7.36497 2.846,11.04883 8.53711,11.04883 3.23613,0 6.02574,-0.5035 8.36914,-1.50782 1.45068,-0.66954 2.73371,-1.22746 3.84961,-1.67382 1.11591,-0.55796 2.39894,-1.39386 3.84961,-2.50977 1.45068,-1.1159 2.56652,-1.95377 3.34766,-2.51172 0.78113,-0.55795 1.89698,-1.50662 3.34765,-2.8457 1.56227,-1.45068 2.62369,-2.39934 3.18164,-2.8457 0.55796,-0.55796 1.56105,-1.61742 3.01172,-3.17969 0.83995,-0.83995 2.19982,-2.25741 3.33008,-3.41992 -1.03697,3.18864 -1.56054,5.94893 -1.56054,8.27343 -10e-6,4.57521 1.05946,7.64477 3.17968,9.20704 2.23181,1.45067 5.07781,2.17578 8.53711,2.17578 7.92293,0 16.23539,-2.67881 24.93945,-8.03516 6.03917,-3.6235 11.56805,-8.22774 16.60157,-13.78516 2.05364,-1.99211 5.26667,-5.70029 9.6582,-11.15429 l 12.38477,-16.06836 c 1.78544,3.79408 4.01909,5.68945 6.69726,5.68945 0.89273,0 1.61783,-0.0544 2.17578,-0.16601 -2.90135,3.79407 -5.58016,8.48102 -8.03515,14.06054 -2.45499,5.57953 -3.68164,10.71164 -3.68164,15.39844 0,9.26201 4.18344,13.89258 12.55273,13.89258 5.69112,0 12.94412,-3.29116 21.75977,-9.875 1.67384,-1.31878 3.26918,-2.66441 4.80468,-4.0293 -0.1247,0.91144 -0.19531,1.8092 -0.19531,2.68945 0,6.02589 3.5711,10.04411 10.71289,12.05274 1.00432,0.33477 2.12016,0.50195 3.34766,0.50195 5.9143,0 13.11092,-3.06955 21.59179,-9.20703 4.19071,-3.03275 8.07866,-6.28521 11.66993,-9.75391 0.75086,-0.48995 1.70046,-1.30397 2.86133,-2.46484 1.78544,6.80702 3.90633,11.7739 6.36132,14.89844 2.56658,3.12453 6.19211,4.68554 10.87891,4.68554 4.79839,0 8.81661,-0.94866 12.05273,-2.8457 l 5.35547,-3.51367 c 5.35635,-1.11591 9.70893,-2.51169 13.05664,-4.18555 2.72463,-1.47129 5.55859,-3.49628 8.4961,-6.05859 0.81134,-0.16436 2.12509,-1.15244 3.95312,-2.98047 1.78545,6.80702 3.90634,11.7739 6.36133,14.89844 2.56658,3.12453 6.1921,4.68554 10.87891,4.68554 4.79839,0 8.81661,-0.94866 12.05273,-2.8457 l 5.35547,-3.51367 c 5.35634,-1.11591 9.70892,-2.51169 13.05664,-4.18555 5.57953,-3.01294 11.60588,-8.31419 18.07813,-15.90234 1.00431,-1.2275 1.50585,-2.17616 1.50585,-2.8457 0,-0.78114 -0.27798,-1.16993 -0.83593,-1.16993 -0.55796,0 -1.39582,0.55793 -2.51172,1.67383 -9.81997,11.94019 -19.36104,17.96458 -28.62305,18.07617 1.11591,-4.24044 2.67887,-11.77142 4.6875,-22.5957 2.12022,-10.82427 4.18473,-17.96647 6.19336,-21.42578 0.55795,-0.66954 1.0595,-1.340225 1.50586,-2.009765 0.55795,-0.78113 1.33944,-1.78422 2.34375,-3.01172 1.11591,-1.33909 1.67383,-2.67849 1.67383,-4.01758 0,-2.67817 -1.78457,-4.01758 -5.35547,-4.01758 -1.11591,0 -4.687,2.846 -10.71289,8.53711 l -21.0918,19.751955 c -3.75942,3.66424 -6.95338,6.88274 -9.77929,9.81641 -0.3059,0.24591 -0.63022,0.53061 -0.9961,0.89648 -0.35312,0.42937 -0.70424,0.83398 -1.05664,1.24805 -1.59607,1.69316 -3.04211,3.26867 -4.28516,4.68555 -7.94683,8.00067 -15.70749,12.05132 -23.28125,12.14257 1.11591,-4.24044 2.67888,-11.77142 4.6875,-22.5957 2.12022,-10.82427 4.18473,-17.96647 6.19336,-21.42578 0.55796,-0.66954 1.0595,-1.340225 1.50586,-2.009765 0.55796,-0.78113 1.33944,-1.78422 2.34375,-3.01172 1.11591,-1.33909 1.67383,-2.67849 1.67383,-4.01758 0,-2.67817 -1.78457,-4.01758 -5.35547,-4.01758 -1.1159,0 -4.687,2.846 -10.71289,8.53711 l -21.09179,19.751955 c -2.67657,2.60881 -5.03491,4.96855 -7.23829,7.20703 -0.65738,0.0453 -1.46843,0.70596 -2.4375,1.99805 -1.13058,1.4461 -2.32235,2.87232 -3.56445,4.28125 -0.86999,0.94129 -1.78267,1.91741 -2.53125,2.76367 -3.4003,3.57799 -7.16736,7.03358 -11.3125,10.36328 -8.81565,7.47657 -16.01422,11.21485 -21.59375,11.21485 -5.46793,0 -8.20117,-2.90042 -8.20117,-8.70313 0,-3.34771 0.83591,-6.52807 2.50976,-9.54101 0.66955,0.22318 1.45103,0.33398 2.34375,0.33398 5.9143,0 13.55804,-2.84599 22.93164,-8.53711 9.4852,-5.69112 14.22852,-11.66109 14.22852,-17.91015 0,-2.00863 -0.83786,-3.6824 -2.51172,-5.02148 -1.56227,-1.45068 -3.62678,-2.17579 -6.19336,-2.17579 -7.81133,0 -16.62534,5.13407 -26.44531,15.40039 -6.66319,6.96606 -11.05919,13.36541 -13.20117,19.20117 -2.60259,2.4722 -5.37255,4.77728 -8.31446,6.91016 -7.47656,5.46793 -13.78089,8.20312 -18.91406,8.20312 -4.90998,0 -7.36523,-2.62243 -7.36523,-7.86718 0,-5.35635 3.5711,-12.6113 10.71289,-21.76172 l 11.54883,-14.5625 c 0.33477,-0.89272 4.1e-4,-1.89581 -1.00391,-3.01172 -1.00431,-1.1159 -1.95298,-1.67383 -2.8457,-1.67383 -0.89273,0 -1.45065,0.0544 -1.67383,0.16602 l -4.35156,2.67969 c -2.45499,1.45067 -4.68669,2.17578 -6.69532,2.17578 -3.4593,0 -5.18945,-1.17223 -5.18945,-3.51563 l 4.01758,-5.355465 c 2.78976,-3.45931 4.18555,-6.3053 4.18555,-8.53711 0,-2.23181 -1.28498,-3.34766 -3.85157,-3.34766 -3.90566,0 -7.14045,4.85412 -9.70703,14.562505 -3.9564,7.693 -10.68766,17.07279 -20.16406,28.12109 -6.47797,6.67386 -12.58652,11.81848 -18.31445,15.39844 -2.3434,1.45067 -5.69094,3.01364 -10.04297,4.6875 -4.35203,1.67385 -7.86675,2.50976 -10.54492,2.50976 -5.69112,0 -8.53711,-2.06451 -8.53711,-6.19336 0,-4.35203 2.84599,-11.21428 8.53711,-20.58789 5.69111,-9.48519 9.59657,-15.17522 11.71679,-17.07226 1.11591,-0.33477 8.59247,-1.39619 22.42969,-3.18164 13.94882,-1.78545 20.92383,-3.17928 20.92383,-4.18359 0,-0.11159 -0.16718,-0.27878 -0.50195,-0.50196 l -24.10352,0.33399 c -4.6868,0 -8.48146,-0.0564 -11.38281,-0.16797 5.35634,-6.025895 8.03515,-9.651415 8.03515,-10.878915 0,-1.22749 -0.83786,-2.28891 -2.51171,-3.18164 -1.67386,-0.89272 -3.06965,-1.33789 -4.18555,-1.33789 z m -35.24414,1.17188 c -4.24044,0 -6.36133,1.56101 -6.36133,4.68554 0,1.56227 0.67068,2.95805 2.00976,4.18555 1.45068,1.2275 3.01169,1.8418 4.68555,1.8418 1.67386,0 3.18045,-0.5035 4.51953,-1.50782 1.45068,-1.1159 2.17578,-2.39893 2.17578,-3.84961 0,-1.45067 -0.77953,-2.67732 -2.34179,-3.68164 -1.45068,-1.1159 -3.01364,-1.67382 -4.6875,-1.67382 z M 553.5,100.37001 l -0.66992,5.69142 c -0.44636,6.91861 -1.78577,14.89671 -4.01758,23.93554 -2.12022,9.03883 -4.29553,14.1729 -6.52734,15.40039 -1.67386,1.2275 -4.07273,1.83985 -7.19727,1.83985 -3.12453,0 -5.97053,-1.17028 -8.53711,-3.51368 -2.45499,-2.45499 -3.68359,-5.58092 -3.68359,-9.375 0,-0.55795 0.0564,-1.1703 0.16797,-1.83984 0.22318,-2.3434 3.79427,-7.1431 10.71289,-14.39648 7.0302,-7.25338 13.61447,-13.16698 19.75195,-17.74219 z m 60.1543,0 -0.66992,5.69142 c -0.44637,6.91861 -1.78577,14.89671 -4.01758,23.93554 -2.12022,9.03883 -4.29554,14.1729 -6.52735,15.40039 -1.67385,1.2275 -4.07468,1.83985 -7.19922,1.83985 -3.12453,0 -5.96857,-1.17028 -8.53515,-3.51368 -2.45499,-2.45499 -3.6836,-5.58092 -3.6836,-9.375 0,-0.55795 0.0564,-1.1703 0.16797,-1.83984 0.22318,-2.3434 3.79428,-7.1431 10.71289,-14.39648 7.03021,-7.25338 13.61448,-13.16698 19.75196,-17.74219 z m -315.06446,4.18556 c 2.00863,0 3.45884,0.77952 4.35157,2.3418 l -17.74219,24.43944 c -11.15905,14.172 -19.97502,21.25782 -26.44727,21.25782 -2.78976,0 -4.18554,-2.00813 -4.18554,-6.02539 0,-6.91862 5.6356,-15.62378 16.90625,-26.11329 11.27064,-10.60109 20.31016,-15.90038 27.11718,-15.90038 z m 208.74219,2.84569 c 2.90135,0 4.35156,0.66873 4.35156,2.00782 0,0.44636 -0.1108,0.9479 -0.33398,1.50585 -1.78545,5.35635 -6.24883,10.32324 -13.39063,14.89845 -7.0302,4.46362 -12.66581,6.69531 -16.90625,6.69531 -0.78113,0 -1.50623,-0.11276 -2.17578,-0.33594 3.90567,-6.36066 9.3741,-12.44143 16.4043,-18.24414 5.24475,-4.35203 9.26102,-6.52735 12.05078,-6.52735 z"
       id="text4170"
       inkscape:connector-curvature="0" />
    <path
       style="font-style:normal;font-variant:normal;font-weight:normal;font-stretch:normal;font-size:267.56549072px;line-height:125%;font-family:'Alex Brush';-inkscape-font-specification:'Alex Brush';letter-spacing:0px;word-spacing:0px;fill:#e83117;fill-opacity:1;stroke:none;stroke-width:1px;stroke-linecap:butt;stroke-linejoin:miter;stroke-opacity:1"
       d="m 260.08611,138.06179 c -5.05503,6.12684 -10.53379,12.22143 -16.42968,18.28711 a 19.192898,10.606602 0 0 0 12.82812,2.73242 19.192898,10.606602 0 0 0 0.22656,-0.004 c 5.51905,-5.31724 10.7257,-10.84008 15.6211,-16.56836 a 19.192898,10.606602 0 0 0 -12.2461,-4.44727 z"
       id="text4189"
       inkscape:connector-curvature="0" />
  </g>
</svg>
