<?xml version="1.0" encoding="UTF-8" standalone="no"?>
<!-- Created with Inkscape (http://www.inkscape.org/) -->

<svg
   xmlns:dc="http://purl.org/dc/elements/1.1/"
   xmlns:cc="http://creativecommons.org/ns#"
   xmlns:rdf="http://www.w3.org/1999/02/22-rdf-syntax-ns#"
   xmlns:svg="http://www.w3.org/2000/svg"
   xmlns="http://www.w3.org/2000/svg"
   xmlns:xlink="http://www.w3.org/1999/xlink"
   xmlns:sodipodi="http://sodipodi.sourceforge.net/DTD/sodipodi-0.dtd"
   xmlns:inkscape="http://www.inkscape.org/namespaces/inkscape"
   width="21.152235mm"
   height="56.444443mm"
   viewBox="0 0 74.948864 200"
   id="svg2"
   version="1.1"
   inkscape:version="0.91 r13725"
   sodipodi:docname="logo.svg">
  <defs
     id="defs4">
    <linearGradient
       inkscape:collect="always"
       id="linearGradient4243">
      <stop
         style="stop-color:#e83117;stop-opacity:1;"
         offset="0"
         id="stop4245" />
      <stop
         style="stop-color:#00585f;stop-opacity:1"
         offset="1"
         id="stop4247" />
    </linearGradient>
    <linearGradient
       inkscape:collect="always"
       xlink:href="#linearGradient4243"
       id="linearGradient4175"
       gradientUnits="userSpaceOnUse"
       gradientTransform="matrix(1.0424889,0,0,1.0424889,1.891069,-341.91463)"
       x1="-14.766992"
       y1="145.13994"
       x2="2.8272955"
       y2="57.437744" />
  </defs>
  <sodipodi:namedview
     id="base"
     pagecolor="#ffffff"
     bordercolor="#666666"
     borderopacity="1.0"
     inkscape:pageopacity="0.0"
     inkscape:pageshadow="2"
     inkscape:zoom="0.98994949"
     inkscape:cx="-235.04401"
     inkscape:cy="72.446323"
     inkscape:document-units="px"
     inkscape:current-layer="layer1"
     showgrid="false"
     inkscape:window-width="1600"
     inkscape:window-height="839"
     inkscape:window-x="0"
     inkscape:window-y="0"
     inkscape:window-maximized="1"
     inkscape:snap-bbox="true"
     inkscape:bbox-nodes="true"
     fit-margin-top="0"
     fit-margin-left="0"
     fit-margin-right="0"
     fit-margin-bottom="0">
    <inkscape:grid
       type="xygrid"
       id="grid4196"
       originx="-647.99997"
       originy="-840" />
  </sodipodi:namedview>
  <metadata
     id="metadata7">
    <rdf:RDF>
      <cc:Work
         rdf:about="">
        <dc:format>image/svg+xml</dc:format>
        <dc:type
           rdf:resource="http://purl.org/dc/dcmitype/StillImage" />
        <dc:title></dc:title>
      </cc:Work>
    </rdf:RDF>
  </metadata>
  <g
     inkscape:label="Layer 1"
     inkscape:groupmode="layer"
     id="layer1"
     transform="translate(-648,-12.36221)">
    <g
       transform="matrix(0.95100035,0,0,0.95100035,690.32653,292.84842)"
       id="g4167">
      <path
         style="fill:#e83117;fill-opacity:1"
         id="path4169"
         d="m -11.463203,-208.00504 c -0.138068,4.57379 0.404475,14.71509 1.032595,26.45487 2.4969283,46.67329 3.9223546,86.00167 -3.965117,94.54641 -1.563483,1.69378 -3.253378,2.08466 -4.396832,2.11577 -1.234839,0.0252 -3.03947,-0.29558 -4.752696,-2.05354 -8.496129,-8.69837 -8.28221,-49.59024 -5.34775,-108.31639 0.348088,-6.94821 0.622283,-12.43598 0.622283,-14.77148 0,-4.67103 -2.347174,-6.43482 -5.901978,-9.10481 -4.801318,-3.60536 -10.779137,-8.09553 -10.308537,-20.93404 0.750634,-20.52761 5.378878,-38.76443 5.575283,-39.53062 0.357814,-1.39625 1.684058,-2.31412 3.11725,-2.178 1.433204,0.1439 2.549438,1.31263 2.62333,2.75167 0.76035,14.69952 3.426452,28.82344 5.874748,31.59649 2.211056,-3.32533 4.007901,-18.57908 4.00985,-34.7507 0,-1.58099 1.260119,-2.87418 2.841116,-2.91501 1.59849,-0.0428 2.907241,1.18623 2.988909,2.76333 0.855633,16.3758 3.445895,31.72484 5.847529,35.24853 2.0496477,-3.45174 3.7123241,-17.91985 3.6617634,-32.47742 -0.00521,-1.61211 1.2970751,-3.12503 2.9072304,-3.12503 l 0.00938,0 c 1.6062773,0 2.9111294,1.49737 2.9169569,3.10558 0.025228,7.33518 -0.3247457,31.78319 -5.9117043,37.1854 -1.3534637,1.30874 -2.7827784,1.59265 -3.7220394,1.5557 -3.319493,-0.12251 -5.971981,-4.08569 -7.939961,-11.8798 -0.933423,4.62825 -2.25384,8.41446 -4.11486,10.08685 -1.421527,1.27762 -2.885838,1.42541 -3.862046,1.32429 -4.71575,-0.5056 -7.554927,-7.97107 -9.252599,-17.46285 -0.805083,5.69779 -1.49348,12.21233 -1.738507,18.91356 -0.357803,9.7932 3.508132,12.69654 7.982744,16.05882 3.858158,2.89752 8.231659,6.18396 8.231659,13.77 0,2.48136 -0.264469,7.7591 -0.62812,15.06318 -1.302903,26.06204 -4.762413,95.29315 3.69482,103.95068 0.175013,0.1789 0.344199,0.29753 0.421979,0.29753 l 0.0021,0 c 0.147793,-0.0622 4.282096,-1.98353 4.622406,-32.12544 0.20807,-18.40212 -0.978157,-40.57685 -1.932973,-58.39557 -0.661177,-12.36207 -1.184288,-22.1261 -1.040383,-26.94298 z"
         inkscape:connector-curvature="0"
         sodipodi:nodetypes="csscccscccccccccccsscscccccccsccsccccc" />
      <path
         style="fill:#00585f;fill-opacity:1"
         id="path4171"
         d="m 11.427142,-84.63321 c -1.477915,0 -2.835278,-0.55033 -3.943725,-1.59655 -3.727867,-3.52953 -4.097356,-12.25705 -4.262643,-26.21179 -0.01751,-1.50321 -0.0369,-3.0103 -0.06224,-4.496 -0.248925,-13.96641 -1.497378,-89.42423 -1.497378,-89.42423 l 5.833913,-0.0973 c 0,0 1.248464,75.45199 1.49543,89.41839 0.02731,1.49738 0.04472,3.01225 0.06224,4.52713 0.08548,7.20684 0.245026,20.62095 2.479424,22.07943 2.747771,-0.15947 4.074015,-10.57884 3.844552,-31.01117 -0.06026,-5.32053 -0.289759,-11.2225 -0.532837,-17.46868 -0.826464,-21.16739 -1.606277,-41.15828 3.237825,-48.73655 0.904255,-1.41569 1.864908,-2.71666 2.796393,-3.97485 4.976331,-6.73428 10.123787,-13.69609 6.253964,-41.19329 -3.231997,-22.96226 -11.840912,-52.21936 -16.348592,-56.02113 -1.258169,1.82407 -4.472663,10.37854 -4.472663,50.06668 l -5.836539,0 c 0,-51.17707 5.059949,-55.81892 9.80293,-56.14951 3.467286,-0.25086 7.868007,2.34523 14.213366,23.35512 3.502293,11.59977 6.808182,26.48987 8.418337,37.93601 4.202377,29.85605 -1.929073,38.15383 -7.339059,45.47345 -0.912042,1.2329 -1.773513,2.39968 -2.570819,3.64814 -3.860107,6.04005 -3.008362,27.84529 -2.323843,45.36844 0.245026,6.28701 0.478377,12.22788 0.538664,17.63204 0.270297,24.16798 -1.129839,36.50476 -9.524845,36.87035 -0.08945,0.003 -0.176963,0.005 -0.26252,0.005 z"
         inkscape:connector-curvature="0"
         sodipodi:nodetypes="ccccccccccccccccccccccccccc" />
      <path
         inkscape:connector-curvature="0"
         d="m 10.783468,-288.8398 c -1.258169,1.82407 -4.472663,10.37854 -4.472663,50.06668 0,19.53001 -6.065336,22.48003 -12.822955,23.96574 -3.37978,0.74285 -4.77993,1.0501 -4.95105,6.80234 -0.13807,4.57379 0.40447,14.71509 1.03259,26.45487 -0.95629,-1.69301 -5.7323,2.25531 -5.82486,0.31309 -0.66118,-12.36207 -1.18429,-22.1261 -1.04038,-26.94298 0.28586,-9.51123 4.67101,-11.25751 9.53068,-12.32512 4.23736,-0.93148 8.239436,-1.81046 8.239436,-18.26794 0,-51.17707 5.059949,-55.81892 9.80293,-56.14951 z"
         id="path4173"
         style="fill:url(#linearGradient4175);fill-opacity:1"
         sodipodi:nodetypes="csccccccscc" />
    </g>
  </g>
</svg>
